# xmcd
#
# Track frame offsets:
#  150
#  11071
#  22676
#  33458
#  44563
#  55247
#  63858
#  75439
#  85872
#  95457
#  105134
#  115679
#  125552
#  136510
#  149279
#  158942
#  166901
#  176880
#  186369
#  195703
#  206612
#  218399
#  229181
#  239087
#  249440
#  258032
#  269431
#  281122
#  291375
#  304398
#  313573
#  326342
#
# Disc length: 4497 seconds
#
# Revision: 0
# Processed by: cddbd v1.5.2PL0 Copyright (c) Steve Scherf et al.
# Submitted via: AltoMP3_Maker 3.0
#
DISCID=c0118f20
DTITLE=Various Artist - Mercury Hillbilly, Vol. 3
DYEAR=1900
DGENRE=
TTITLE0=Eddie Hill - Buckshot
TTITLE1=The Carlisles - Woman Driver
TTITLE2=Louie Innis - Honky-Tonk Man
TTITLE3=Tibby Edwards - Come on Chere
TTITLE4=Johnny Horton - Big Wheels Rollin'
TTITLE5=Chuck Reed - It's Better to Be a Has Been
TTITLE6=George and Earl - Sweet Miss Little Blue Eyes
TTITLE7=Red Kirk - Walking 'Round in Circles
TTITLE8=Benny Martin - That's What I'll Do to You
TTITLE9=Hank Noble - Tell Me the Reason Why
TTITLE10=Ken Marvin - I'd Like to
TTITLE11=Curtis Gordon - Baby, Please Come Home
TTITLE12=Buz Butler - Chew Tobacco Rag
TTITLE13=Art Gibson - Honky-Tonk Mama
TTITLE14=Benny Martin - Ice Cold Love
TTITLE15=Betty Amos - Cheater Cheater
TTITLE16=Allen Flatt - Triflin' Girl
TTITLE17=Paul and Roy - Don't Ever Tell Me
TTITLE18=Denver Duke and Jeffery Null - All Washed up with You
TTITLE19=Bill Nettles - When I Pick Another Wife
TTITLE20=Roy King - Story of Shelly Liles
TTITLE21=Bounding Billy Carlisle - Doggie Joe
TTITLE22=Country Johnny Mathis - You Don't Care
TTITLE23=Jimmie Skinner - Want You for My Baby
TTITLE24=George and Earl - Don't, Don't, Don't
TTITLE25=Johnny Horton - You, You, You
TTITLE26=Tibby Edwards - Play It Cool, Man, Play It Cool
TTITLE27=Chuck Reed - Love, Love, Love
TTITLE28=Louis Innis - Better Back Up Mama
TTITLE29=Allen Flatt - No Love, No Worries Anymore
TTITLE30=Buz Butler - Rubber Ball Bounce
TTITLE31=Lulu Belle and Scotty - I'm No Communist
EXTD=
EXTT0=
EXTT1=
EXTT2=
EXTT3=
EXTT4=
EXTT5=
EXTT6=
EXTT7=
EXTT8=
EXTT9=
EXTT10=
EXTT11=
EXTT12=
EXTT13=
EXTT14=
EXTT15=
EXTT16=
EXTT17=
EXTT18=
EXTT19=
EXTT20=
EXTT21=
EXTT22=
EXTT23=
EXTT24=
EXTT25=
EXTT26=
EXTT27=
EXTT28=
EXTT29=
EXTT30=
EXTT31=
PLAYORDER=
